<?xml version="1.0" standalone="no"?><!DOCTYPE svg PUBLIC "-//W3C//DTD SVG 1.1//EN" "http://www.w3.org/Graphics/SVG/1.1/DTD/svg11.dtd"><svg t="1501171868812" class="icon" style="" viewBox="0 0 1024 1024" version="1.1" xmlns="http://www.w3.org/2000/svg" p-id="5509" xmlns:xlink="http://www.w3.org/1999/xlink" width="256" height="256"><defs><style type="text/css"></style></defs><path d="M500.85164777258575 737.8099975177445L338.9285887675586 707.6136026861944 259.3172391956307 567.485985898287 179.70442008036622 707.6136026861944 17.787240685189943 737.8099975177445 130.49820226346435 854.5986933402764 110.04044670381256 1013.3892174577979 259.3172391956307 945.4407139870382 408.59403168744893 1013.3892174577979 388.1348065844602 854.5986933402764Z" fill="#d81e06" p-id="5510"></path><path d="M1006.2127593148105 737.8099975177445L844.2882307664461 707.6136026861944 764.6768811945187 567.485985898287 685.0640606427505 707.6136026861944 523.1468826840779 737.8099975177445 635.8578442623524 854.5986933402764 615.4000872661968 1013.3892174577979 764.6768811945187 945.4407139870382 913.9536736863367 1013.3892174577979 893.4959181266848 854.5986933402764Z" fill="#d81e06" p-id="5511"></path><path d="M500.85164777258575 180.93332605482658L338.9285887675586 150.73840076661287 259.3172391956307 10.609312998865278 179.70442008036622 150.73840076661287 17.787240685189943 180.93332605482658 130.49820226346435 297.72348998419136 110.04044670381256 456.5140141017129 259.3172391956307 388.564041087617 408.59403168744893 456.5140141017129 388.1348065844602 297.72348998419136Z" fill="#d81e06" p-id="5512"></path><path d="M1006.2127593148105 180.93332605482658L844.289700309783 150.73840076661287 764.6768811945187 10.609312998865278 685.0640606427505 150.73840076661287 523.1468826840779 180.93332605482658 635.8578442623524 297.72348998419136 615.4000872661968 456.5140141017129 764.6768811945187 388.564041087617 913.9536736863367 456.5140141017129 893.4959181266848 297.72348998419136Z" fill="#d81e06" p-id="5513"></path></svg>